<?xml version="1.0" encoding="UTF-8"?>
<svg id="Layer_1" data-name="Layer 1" xmlns="http://www.w3.org/2000/svg" version="1.1" viewBox="0 0 595.3 841.9">
  <defs>
    <style>
      .cls-1 {
        fill: #e4e2dd;
        stroke-width: 0px;
      }
    </style>
  </defs>
  <path class="cls-1" d="M301.5,431.6c6.7,7.9,13.6,16,20.7,24.3-4.7,3-9.2,5.8-14,8.8-11.5-14.1-22.9-28.2-34.4-42.4,4.3-3.4,8.5-6.8,12.8-10.2,1.4,1.5,2.5,3,3.9,4.3,1.4,1.5,3.1,2.5,5.3,2.4,2.4-.1,4.7-1.6,4.8-4,.2-6.7,0-13.5,0-20.3-.8,0-1.4-.1-2-.1-9.8,0-19.7,0-29.5,0-1.7,0-2.3.4-2.3,2.2,0,5.9.1,11.7,0,17.6-.2,9.3-5.1,14.8-14.3,16.4-.7.1-1.3.3-2,.5,7,8.2,13.9,16.2,20.9,24.4-3.1,2-5.9,3.8-8.8,5.6-1.4.9-2.7,1.8-4.1,2.5-.5.2-1.7,0-2-.3-7-8.5-13.8-17-20.7-25.6-4.4-5.4-8.8-10.8-13.4-16.4,4.3-3.4,8.4-6.7,12.7-10.1,1.5,1.7,2.8,3.3,4.3,4.9,2.2,2.3,5.4,3.1,7.8,2.1,2-.8,2.6-2.6,2.7-4.4.1-6.3,0-12.7,0-19.2-.9,0-1.7-.1-2.5-.1-8.9,0-17.9,0-26.8,0-1.7,0-2.3-.4-2.3-2.2.1-3.6,0-7.2,0-11.1,48.7,0,97.2,0,145.8,0v13.2c-3.5,0-6.9.1-10.3,0-1.9,0-2.3.5-2.3,2.4,0,20.9,0,41.8,0,62.7,0,.9,0,1.8,0,2.8-5.9,0-11.5,0-17.4,0,0-10,0-19.9,0-30-5.8,1-11.4,1.2-16.8-.5-2-.6-3.9-1.8-5.9-2.6-.5-.2-1.2-.4-1.7-.3-2.8.9-5.6,1.9-8.4,2.8ZM317.8,417.3c5,1.1,10.1.9,15.1-.6.6-.2,1.2-1.3,1.2-1.9.1-3.8,0-7.7,0-11.5,0-2.9,0-5.8,0-8.8-5.6,0-10.9,0-16.4,0,0,7.7,0,15.2,0,22.8Z"/>
</svg>