<?xml version="1.0" encoding="UTF-8"?>
<svg id="svg" xmlns="http://www.w3.org/2000/svg" version="1.1" viewBox="0 0 400 340">
  <defs>
    <style>
      .cls-1 {
        fill: #eff3f3;
      }

      .cls-1, .cls-2, .cls-3, .cls-4 {
        fill-rule: evenodd;
        stroke-width: 0px;
      }

      .cls-2 {
        fill: #6ae1da;
      }

      .cls-2, .cls-3, .cls-4 {
        display: none;
      }

      .cls-3 {
        fill: #5dc7be;
      }

      .cls-4 {
        fill: #12c7b2;
      }
    </style>
  </defs>
  <path id="path0" class="cls-1" d="M59.6,120.7c-3.2,0-6.6.2-7.6.2h-1.8v32.4c.2,34,.3,35.3,1.3,37.5,1.5,3.1,3.7,4.4,7.8,4.4s3.5,1.4,3.5-12.3v-11.7l.8-1.8c.4-1,.9-1.8,1-1.8.6,0,3.4,2.5,3.9,3.3.2.4.8,1.3,1.3,2.1s1,1.6,1.1,1.7c0,.1.7,1.2,1.5,2.4.7,1.2,1.5,2.3,1.6,2.6s.5.9.9,1.4c.3.5,1.2,1.9,1.9,3,5.4,8.6,6.9,10.4,9.4,11,1.3.3,13.1.5,13.4.1,0,0-.3-1-1-2.1-.6-1-1.5-2.6-2-3.4-.5-.8-.9-1.5-1-1.6-.2-.2-.8-1-.9-1.5,0-.2-.2-.4-.4-.4s-.2-.1-.2-.2-.7-1.3-1.5-2.7c-3.4-5.5-6.5-10.6-6.7-11,0-.2-.7-1.2-1.4-2.3-.7-1.1-1.5-2.4-1.8-3s-.8-1.4-1.1-1.7l-.5-.6.6-.5c.3-.3,1.1-.7,1.7-1,10.9-5.1,14.7-10.4,14.3-19.8-.4-11.6-6.7-19.4-17.5-22-2.2-.5-11.3-1.2-13.9-1.1-.5,0-3.5,0-6.7.2M129.2,121.5c-1.4.8-1.8,1.4-2.6,4.3-.2.8-1.8,6.1-3.4,11.5-.6,1.9-1.4,4.5-1.7,5.9-.4,1.3-.8,2.7-.9,3-.2.7-1.7,5.4-2.4,8-.3.9-1,3.2-1.6,5.1-.6,1.9-1.3,4.1-1.5,4.9-.2.7-.8,2.8-1.4,4.6s-1.1,3.6-1.2,4c-.2.9-1,3.5-2,6.7-3.2,10.6-4.7,16.1-4.5,16.3,0,0,2.2.1,4.8.1,6.7,0,7.4-.3,8.3-3.5,3.2-11.1,3.4-11.6,5.1-12.5,1-.5,20.9-.6,21.9-.1.8.4,1.3,1.3,1.9,3.4.2.8.5,1.8.6,2.2,1.7,6,3,9.2,4,9.9,1,.6,11.8.8,11.8.2s-.9-3.3-1.2-4.2c-.6-1.6-2.1-6.8-3-10.4,0-.2-.4-1.4-.8-2.7-.7-2.4-1.2-4.3-1.6-5.9-.1-.5-.7-2.6-1.3-4.8-1.2-4.2-1.3-4.5-2-7.2-.3-1-.8-3.1-1.3-4.6-.4-1.5-.9-3.2-1-3.8-.1-.5-.3-1.2-.4-1.5-.1-.3-.4-1.4-.7-2.6-.3-1.1-1.3-5-2.3-8.5-1-3.6-2.1-7.6-2.4-8.9-1.9-7.1-2.6-8.9-3.6-9.4-1.2-.5-12.2-.4-13.3.2M186.6,121.6c-6.8,1.8-12.2,6.5-14.6,12.6-5.1,12.9,1.2,22.9,17.7,27.6,9.2,2.7,11.6,3.7,14.1,6.3,2.8,2.9,3,7.7.5,10.3-.2.2-.5.6-.8.9-1.9,2.3-7.7,3.5-12.1,2.4-4.9-1.2-8-2.5-9.7-4-.8-.7-1.4-1.1-1.8-1.1-.6,0-.9.2-2.7,2.2-3.3,3.7-5.9,6.5-6.1,6.6-2.2,1.4.8,4.5,7.1,7.2.8.4,1.9.8,2.3.9,4.8,2,16.3,2.9,23.2,1.8,18.5-3,24.5-26.5,9.5-37.1-2.3-1.6-7.8-4-9.2-4s-1-.2-1.8-.5c-.8-.2-2.5-.8-3.9-1.1-7.7-2.1-9.1-2.8-11.3-6-2.6-3.9-2.6-6.2,0-8.7,3.3-3.3,5.9-3.6,14.2-1.8,1,.2,2.8.5,3.9.5,2.5.2,2.1.4,10.2-7.3l2.2-2.2-1.2-.6c-.6-.3-1.2-.6-1.4-.6s-.6-.2-1-.3c-1.4-.6-3.7-1.4-5.5-1.8-1-.3-2.9-.7-4.2-1.1-6.3-1.6-13.5-2-17.5-1M250.5,121.5c-1.6,1-1.6,1.1-3.7,8-.3,1-1,3.2-1.5,4.9s-1.2,4-1.6,5.2-.8,2.9-1.1,3.8c-.3.9-.7,2.4-1,3.3-.3.9-.7,2.3-.9,3-.5,1.4-.8,2.5-2.1,6.8-.5,1.5-1,3.4-1.2,4.1-1.1,3.6-1.3,4.4-1.8,6.1-.4,1.6-2,6.9-4.3,14.4-2.3,7.7-2.9,9.5-3.5,11.9l-.7,2.7h2.6c7.2.1,9.4-.2,9.9-1.4.8-2,2.5-7.5,3.2-10,.6-2.5,1.2-3.5,2.4-4.2l1-.6h21.1l.7.7c.5.5.9,1.5,1.3,3.2,3.5,12.8,3.1,12.3,10.9,12.3s5.7.4,4.6-3.3c-.4-1.3-.8-2.8-1-3.2-.1-.4-.4-1.5-.7-2.4-.7-2.3-.8-2.8-1.4-5.2-.3-1.1-1-3.8-1.6-5.9-.6-2.1-1.3-4.5-1.5-5.3s-.5-1.8-.6-2.2-.6-1.9-1-3.4-.8-3-1-3.4c-.1-.4-.6-2.2-1.1-3.9s-1.4-5.3-2.2-7.8c-.7-2.5-1.4-5-1.5-5.5,0-.5-.5-1.8-.8-2.9-.3-1.1-.7-2.4-.8-2.8-.1-.4-.5-1.8-.8-3-.4-1.3-1-3.6-1.4-5.1s-.9-3.2-1-3.8c-.2-.5-.6-1.8-.9-2.9-.3-1-.6-1.9-.7-1.9s-.4-.2-.7-.5c-.9-.8-12.4-.7-13.7,0M301.8,121.3c-.5.2-1.2.6-1.4.9q-.5.6-1.2,6.9c-.3,2.4-.7,5.7-.9,7.3-.2,1.6-.5,3.8-.6,4.9-.1,1.1-.4,3.2-.6,4.8-.2,1.5-.5,3.8-.6,5.1-.3,3.2-.6,5.5-1.2,10.1-.3,2.1-.7,5.4-.9,7.2s-.5,4-.6,4.9-.4,3.3-.6,5.5c-.7,7.6-1.4,13.7-1.6,15.2-.1.9-.2,1.7,0,1.8.2.3,11.7.3,11.9,0,0-.1.4-2.7.6-5.8.3-3.1.7-7.9,1-10.8.3-2.9.6-6.5.7-8s.4-4.1.5-5.6.3-3.5.4-4.4c.2-2.6.3-3.2.7-3.1.2,0,3.7,6.8,7.8,15,8.1,16.1,7.7,15.4,8.2,14.2.2-.4,2.2-4.6,4.5-9.3s5.5-11.3,7.1-14.6c4.1-8.4,3.7-9.1,4.6,7.2.2,4.1.5,9.2.6,11.5.1,2.2.3,6.1.5,8.7.1,2.5.3,4.8.4,5.1.3.7,12.5.5,12.4-.2,0-.3-.2-2.6-.4-5.2s-.5-5.9-.6-7.3c-.1-1.4-.4-4.4-.6-6.6-.2-2.2-.6-6.9-1-10.5-.3-3.6-.8-8.5-1-11-.4-5-1-11.6-1.3-15.1-.2-2.2-.6-6.6-1.2-13.4q-.4-5-5.9-5.2c-5.7-.2-8.5,1.2-9.1,5,0,.5-.9,2.4-1.9,4.4-3.6,7.3-7.4,15-7.4,15.1-.2.2-1-1-1.2-1.6,0-.3-.8-2-1.6-3.7-1.4-3.1-4.7-10.5-5.7-13.1-.9-2.2-2.3-4.3-3.2-5-1.7-1.2-7.2-1.7-9.5-.9M77.7,135.9c6.7,3.1,6.7,13,0,15.4-3,1.1-10,1-12.2-.1-2.1-1-2.5-3.7-2.2-12.5v-3.6h6.6q6.5,0,7.9.8M136.5,150.5c1,.4,1,.5,4.4,10.4,1.1,3.4,2.1,6.2,2.1,6.3s-3.5.1-7.8.1-7.8,0-7.8-.3.3-1.2.7-2.4,1.2-3.5,1.7-5.3c3.2-9.7,3.5-10.1,6.8-8.9M257.4,150.4c.5,0,1,.3,1.2.6.6.7,5.9,16,5.6,16.2,0,0-3.6.1-7.8.1-8.8,0-8,.3-7-2.7,4.8-14.8,4.5-14,5.8-14.4.4-.1.9-.2,1-.1.2,0,.7.2,1.1.2M193.2,214.4c-.6.1-1.7.3-2.4.5-4,.8-8.3,4-10.3,7.6-2,3.5-2.1,4.7-2.1,18.3s0,13.5,1.4,16.3c5.7,12.1,24.1,13.8,31.1,2.8,2.5-3.9,2.8-6.3,2.9-19.1,0-14.9-.9-17.8-7.1-23.1-.9-.8-4.9-2.6-6.3-2.9-4.3-.9-5-.9-7.1-.5M146.8,214.5c-2.7.5-3.5.7-4.6,1.1-5.3,2.2-8.7,6.3-9.7,11.6-.4,2.4-.3,24.8.2,27.3,1.5,8.7,12.4,14.8,21.8,12.4,6.8-1.7,11.5-7.5,12.3-14.8.5-5.1.2-23-.5-25.9-1.9-7.8-10.9-13.2-19.5-11.7M278.7,215c-11.3,2-16.6,16.1-8.8,23.2,2.5,2.3,5.1,3.6,10.1,5.2,1.3.4,3.3,1.1,4.6,1.5,11.3,3.6,7.3,15.5-4.2,12.4-2.7-.7-5.2-1.8-6.2-2.7-1.1-1-1.3-1.1-1.8-.6s-4.5,4.9-5.3,5.8c-1.6,1.8-.8,2.7,4.3,5.1,6.3,3,17.4,3.4,22.8.7,1.9-.9,5.6-4.2,5.6-5s.2-.5.5-.9c2.2-3.1,2.6-9.3.8-13.2-1.8-3.9-6.4-7.5-10.5-8.4-7.2-1.5-10.8-3-12.4-5.3-2.4-3.5-2.2-5.1,1.3-7.7,1.2-.9,4.5-1,7.2-.3.9.2,2.5.5,3.5.6h2c0,.1,1.1-.9,1.1-.9,6-5.4,6.2-5.7,5.3-6.1-.3-.1-1.1-.4-1.8-.7-5.8-2.3-13.8-3.6-18-2.8M90.3,215h-3.2v46.8l.9,1.6c1.3,2.6,4.8,4,7.2,2.9l.6-.3v-8.2c0-8.4.3-10.5,1.2-10.5s2.8,2.2,2.8,2.5.5.9,1.1,1.8c.6.9,1.1,1.7,1.1,1.7,0,0,.5.9,1.2,1.9s1.2,1.9,1.2,1.9c0,.1,1.2,2,4.1,6.5,1.8,2.8,2.4,3,8,3s4.9,0,4.3-1c-1-1.5-2.3-3.5-2.5-4.1-.3-.6-.8-1.5-1-1.6,0,0-.7-1.1-1.4-2.3-1.6-2.6-2-3.4-3.5-5.6-.6-1-1.1-1.8-1.1-2s-.7-1.2-1.5-2.4c-1.7-2.5-1.8-2.3,1.3-3.9,8.9-4.7,11.4-12.6,6.5-21.2-3.7-6.6-9.2-8-27.3-7.5M223.8,215.1v9.8h12v18.1c.1,19.8,0,18.9,1.6,20.9,1.5,2,3.3,2.7,6.4,2.7h1.7v-41.6h5.5c0-.1,5.4-.2,5.4-.2v-9.8c.1,0-16.2,0-16.2,0-9,0-16.4,0-16.4.2M199.5,224.9c1.2.6,2.3,1.7,2.9,3.1.8,1.6,1,23.7.3,25.6-1.9,5-11.4,5.4-13.8.6-.9-1.9-1.2-22.5-.3-25.5,1.1-3.7,7-5.8,10.9-3.8M153.5,225.1c1.5.7,3,2.4,3.3,3.9.5,2.2.5,23.3,0,24.7-1.9,5-11,5.5-13.8.7-1.4-2.4-1.5-24.1,0-26.8,1.5-3,7-4.3,10.6-2.5M106,225.5c2.2,1,3.2,2.9,3.2,5.6s-2.5,5.4-7.2,5.4-6.2-.4-6.2-7v-4.7h2c3.9-.3,6.8,0,8.2.6"/>
  <path id="path2" class="cls-3" d="M198.6,54.1h1.2c.3,0,0,0-.7,0s-.9,0-.5,0M277.5,64.1h1.1c.3,0,0,0-.5,0s-.9,0-.5,0M103.5,72.2c0,.5,0,.7,0,.4v-.9c0-.2,0,0,0,.4M164,72.9c0,.9,0,1.2,0,.8v-1.6c0-.4,0,0,0,.8M165.7,75.7c0,.7,0,.9.1.5s0-.9,0-1.2-.1,0-.1.7M281.4,76h1c.2,0,0,0-.6,0s-.7,0-.4,0M224.8,79h1.5c.4,0,0,0-.8,0s-1.1,0-.7,0M120.5,99c0,.5,0,.7,0,.4v-.9c0-.2,0,0,0,.4M192,120.9h1.3c.4,0,0,0-.7,0s-1,0-.7,0M261.6,120.9h1c.2,0,0,0-.6,0s-.7,0-.4,0M170.1,142.7c0,.6,0,.9.1.5s0-.8,0-1.1-.1,0-.1.5M50.4,162.9c0,3.8,0,5.4,0,3.5v-7c0-1.9,0-.3,0,3.5M63,177.1c0,1,0,1.4,0,.9v-1.8c0-.5,0,0,0,.9M340.1,181.2c0,.5,0,.7.1.4v-.9c0-.2-.1,0-.1.4M63,190.4c0,2.3,0,3.2,0,2.1v-4.1c0-1.2,0-.3,0,2M106.2,196h.9c.2,0,0-.1-.4-.1s-.7,0-.4.1M114.3,196h1c.2,0,0-.1-.6-.1s-.7,0-.4.1M154.5,196h.9c.2,0,0-.1-.4-.1s-.7,0-.4.1M192.4,196h1.1c.3,0,0-.1-.5-.1s-.9,0-.5.1M197.1,196h1.3c.3,0,0-.1-.7-.1s-1,0-.7.1M275.9,196h1.3c.4,0,0-.1-.7-.1s-1,0-.7.1M148.7,214.3h1.5c.4,0,0-.1-.8,0-.8,0-1.1,0-.7.1M88,215.1h2.1c.6,0,0,0-1,0s-1.6,0-1,0M195.3,224.3h1.1c.3,0,0-.1-.5-.1s-.9,0-.5.1M249.6,225.1h4.6c1.2,0,.2,0-2.4,0s-3.6,0-2.2,0M55.4,226h.9c.2,0,0-.1-.4-.1s-.7,0-.4.1M132,230.7c0,.7,0,1,.1.7v-1.3c0-.4-.1,0-.1.7M178.1,231.8c0,.9,0,1.3,0,.8v-1.7c0-.4,0,0,0,.9M95.9,233.2c0,.5,0,.7,0,.4v-.9c0-.2,0,0,0,.4M60.1,234.6h3.8c1,0,.2,0-1.9,0s-2.9,0-1.9,0M142.1,239.6c0,2.8,0,3.9,0,2.5v-5.1c0-1.4,0-.2,0,2.6M132,238.4c0,.8,0,1.1.1.7v-1.5c0-.4-.1,0,0,.8M178.1,248.5c0,.7,0,1,.1.7v-1.3c0-.4-.1,0-.1.7M302.3,252.3c0,.8,0,1.1.1.7v-1.5c0-.4,0,0,0,.8M136.1,261.8s.4.4.8.8l.8.7-.7-.8c-.7-.7-.9-.9-.9-.7M93.1,266.8h1c.2,0,0-.1-.6-.1s-.7,0-.4.1M243.1,266.8h1.6c.4,0,0,0-.8,0s-1.2,0-.8,0M138.5,278.5h2c.5,0,0,0-1,0s-1.5,0-.9,0M140.5,285.8h1.8c.5,0,0,0-.9,0s-1.4,0-.9,0M253.5,288.8c0,.1,0,.3.1.4.2.1.2,0,.1,0,0-.2.1-.3.5-.4h.7c0-.1-.7-.1-.7-.1-.4,0-.7,0-.8.2M208.6,301c0,.6,0,.8.1.5v-1.1c0-.3-.1,0-.1.5M132.9,303.6h1c.3,0,0-.1-.6-.1s-.7,0-.4.1"/>
  <path id="path3" class="cls-2" d="M201.5,32.5s.4.4.8.8l.8.7-.7-.8c-.7-.7-.9-.9-.9-.7M169.3,38.6s.4.3.8.7l.7.6-.6-.7c-.3-.4-.7-.7-.8-.7s-.2,0-.1,0M154.6,41.9h1.7c.5,0,.2,0-.8,0s-1.4,0-.9,0M241.5,41.9h1.3c.3,0,0,0-.7,0s-1,0-.7,0M224.5,44.6c.7.7,1.3,1.2,1.3,1.2,0,0-.4-.5-1.1-1.2-.7-.7-1.3-1.2-1.3-1.2,0,0,.4.5,1.1,1.2M174.3,44.5l-.7.8.8-.7c.4-.4.8-.8.8-.8,0-.2-.2,0-.9.7M194.9,48.1s.4.4.8.8l.8.7-.7-.8c-.7-.7-.9-.9-.9-.7M150.3,53.9c0,.7,0,1,.1.7v-1.3c0-.4-.1,0-.1.7M188.8,53.7c0,.6,0,1.1,0,.9s.2-.6.1-1.1v-.9l-.2,1.1M138.3,55.4c0,.5,0,.7.1.4v-.9c0-.2-.1,0-.1.4M150.3,56.3c0,.5,0,.7.1.4v-.9c0-.2-.1,0-.1.4M259.8,57.8c0,.5,0,.7.1.4v-.9c0-.2-.1,0-.1.4M119.2,61.1h1c.2,0,0,0-.6,0s-.7,0-.4,0M274.1,61.6h1.1c.3,0,0,0-.5,0s-.9,0-.5,0M266.3,62.1h1c.3,0,0,0-.6,0s-.7,0-.4,0M115.9,63.6h.9c.2,0,0,0-.4,0s-.7,0-.4,0M281.3,63.8h1.2c.3,0,0,0-.7,0s-.9,0-.5,0M265.2,64.1h8c2.2,0,.3,0-4.1,0s-6.2,0-3.9,0M279.8,65h.9c.2,0,0,0-.4,0s-.7,0-.4,0M111.2,65.2l.8.8.8.7-.7-.8c-.7-.7-.9-.9-.9-.7M127.6,66.2v.5s.2,0,.2-.2c0-.3.3-.4,1.8-.5h1.8-1.8c-1.4,0-1.8,0-1.9.2M291,67.9l.8.8.8.7-.7-.8c-.7-.7-.9-.9-.9-.7M218.7,68.7h1.1c.3,0,0,0-.5,0s-.9,0-.5,0M302.1,70.7h1c.2,0,0,0-.6,0s-.7,0-.4,0M181.5,72.9c0,.7,0,1,.1.7v-1.3c0-.4-.1,0-.1.7M226.3,71.9h1c.3,0,0,0-.6,0s-.7,0-.4,0M261.3,74c0,.5,0,.7.1.4v-1c0-.3-.1,0-.1.6M208.9,74.9l-1.5,1.5,1.5-1.5,1.5-1.5c0-.2-.2,0-1.6,1.5M282.9,77.3v1.4c.1,0,.2-1.2.2-1.2,0-.7,0-1.3-.1-1.4s-.1.4,0,1.2M251.2,76.6c.3.4.3.5,0,.9s-.3.4.1,0q.5-.4,0-.9t-.1,0M203.7,77.4c0,.5,0,.7.1.4v-1c0-.2-.1,0-.1.6M217.6,77.9c-.2.2-.3.4-.3.5s.1,0,.3-.2.6-.4,1-.5h.7c0,0-.7,0-.7,0-.4,0-.9,0-1,.3M174.1,81.2h1.5c.4,0,0,0-.8,0s-1.1,0-.7,0M262.9,82.5c-.2,0,0,.2.5.2h.8c0-.2-.9-.3-1.3,0M322.2,82.8l.8.8.8.7-.7-.8c-.7-.7-.9-.9-.9-.7M75,84l-.7.8.8-.7c.7-.7.9-.9.7-.9s-.4.4-.8.8M169.3,84.1q0,.3.2,0c.1-.2,1.1-.3,2.9-.4h2.7-2.9c-2.6,0-2.9,0-2.9.3M286.3,84.5l.8.8.8.7-.7-.8c-.7-.7-.9-.9-.9-.7M121.6,86.4l-1,1,1-1c1-.9,1.1-1.1,1-1.1s-.5.5-1,1M276.3,86.2c.5.5.9.9.9.9,0,0-.3-.4-.7-.9-.5-.5-.9-.9-.9-.9,0,0,.2.4.7.9M78.3,87.3l-.8.9.9-.8.9-.9c0-.2-.2,0-1,.8M86.4,87.7c0,.5,0,.7,0,.4s0-.7,0-1,0,0,0,.6M161.5,87.5c.3.4.6.7.7.7,0,0-.2-.4-.6-.8l-.7-.7.6.8M199.3,87.2h.9c.2,0,0,0-.4,0s-.7,0-.4,0M311.8,88c0,.5,0,.7.1.4v-.9c0-.2-.1,0-.1.4M293.2,88.7h.9c.2,0,0,0-.4,0s-.7,0-.4,0M195.9,90.5c-.4.4-.8.8-.7.8,0,0,.5-.3.9-.7,1-1,.9-1.1-.2,0M316.6,90.4l-.6.7.6-.5c.3-.3.8-.6,1-.7q.3,0,0-.2c-.2,0-.7.3-1,.7M182,93s.4.4.8.8l.8.7-.7-.8c-.7-.7-.9-.9-.9-.7M238.6,93.7l-.7.8.8-.7c.4-.4.8-.8.8-.8,0-.2-.2,0-.9.7M84.1,94.3c0,.5,0,1-.2,1.3q-.3.4,0,0c.4-.3.6-1.8.2-2.1,0,0,0,.3,0,.7M189,94s.4.4.8.8l.8.7-.7-.8c-.7-.7-.9-.9-.9-.7M115.4,96.3c0,.7,0,1,0,.7v-1.3c0-.4,0,0,0,.7M206.7,96.2l-.7.8.8-.7c.4-.4.8-.8.8-.8,0-.2-.2,0-.9.7M226.2,101.2c-.4.4-.5.7-.3.6.2,0,.5-.3.5-.5s.2-.3.3-.2c.1,0,.2,0,.2-.2q0-.5-.8.4M250.8,102.1h1.2c.3,0,0,0-.7,0s-.9,0-.5,0M282.1,104.2c-.2.4,0,.6.4.3.2-.2.2-.3,0-.4-.1,0-.3,0-.4,0M63.4,120.7h1.5c.4,0,0,0-.8,0-.8,0-1.1,0-.7,0M69.9,120.7h1.5c.4,0,0,0-.8,0-.8,0-1.1,0-.7,0M52,120.9h2.2c.6,0,0,0-1.2,0s-1.7,0-1,0M74.8,120.9h1c.2,0,0,0-.6,0s-.7,0-.4,0M212.1,132l-.7.8.8-.7.8-.8c0-.2-.2,0-.9.7M186.8,137.7l-.8.9.9-.8c.9-.8,1-1,.8-1s-.5.4-.9.9M50.4,148.3c0,4.4,0,6.1,0,4v-7.9c0-2.2,0-.4,0,4M63,142.1c0,.9,0,1.3,0,.8v-1.7c0-.4,0,0,0,.9M97.9,144.5c0,.9,0,1.3,0,.8v-1.7c0-.4,0,0,0,.9M70.9,152.1h1.7c.5,0,.2,0-.8,0s-1.4,0-.9,0M216,160.7c.7.7,1.3,1.2,1.3,1.2,0,0-.4-.5-1.1-1.2-.7-.7-1.3-1.2-1.3-1.2,0,0,.4.5,1.1,1.2M306.4,164.6c0,.5,0,.7.1.4v-.9c0-.2-.1,0-.1.4M131.1,167.3h7.6c2,0,.3,0-3.9,0s-5.8,0-3.7,0M253.1,167.3h6.8c1.8,0,.3,0-3.5,0s-5.3,0-3.3,0M63,173.2c0,1.3,0,1.8,0,1.2v-2.3c0-.6,0-.1,0,1.2M221.5,174.4c0,1.1,0,1.6,0,1v-2.1c0-.6,0-.1,0,1M340.1,179.5c0,.6,0,.9.1.5v-1.1c0-.3-.1,0-.1.5M130.8,179.7h9c2.4,0,.4,0-4.6,0s-7,0-4.4,0M251.8,179.7h9c2.4,0,.4,0-4.6,0s-7,0-4.4,0M175.2,180.8l-.7.8.8-.7.8-.8c0-.2-.2,0-.9.7M194.3,182.1h2.1c.6,0,.1,0-1,0s-1.6,0-1,0M172.5,183.7l-1,1,1-1c1-.9,1.1-1.1,1-1.1s-.5.5-1,1M99,195.4l-.9.2h.9c.5,0,.9,0,.9-.2v-.2s-.4.1-.9.2M88.2,195.5h1c.2,0,0-.1-.6-.1s-.7,0-.4.1M190.3,195.8h.9c.2,0,0-.1-.4-.1s-.7,0-.4.1M108.1,196h1.8c.5,0,0,0-.9,0s-1.4,0-.9,0M112.7,196h.9c.2,0,0-.1-.4-.1s-.7,0-.4.1M157.5,196h4c1.1,0,.2,0-2,0s-3.1,0-2,0M194.6,196h1.5c.4,0,0-.1-.8,0-.8,0-1.1,0-.7.1M229.2,196h2.1c.6,0,.1,0-1,0s-1.6,0-1,0M234,196h1.3c.4,0,0-.1-.7-.1s-1,0-.7.1M279.7,196h3.9c1,0,.1,0-2,0s-3,0-1.9,0M91.5,215.1h1.3c.4,0,0-.1-.7-.1s-1,0-.7.1M102.9,215.1h1c.2,0,0-.1-.6-.1s-.7,0-.4.1M86.9,221.8c0,3.6,0,5.1,0,3.4v-6.6c0-1.9,0-.4,0,3.2M223.8,220.9v4.1h12-11.8v-8.1,4.1M298.9,218.8c0,.1,0,.5-.4.9-.3.3-.5.6-.4.6.5,0,1.4-1.4,1.1-1.6-.2,0-.3,0-.2.1M100.3,224.8h1.3c.4,0,0-.1-.7-.1s-1,0-.7.1M245.7,245.9c0,11.5,0,16.2,0,10.4v-20.9c0-5.7,0-1,0,10.4M324.5,226.1c-.3.1-.4.2-.1.2s.6,0,.9-.2c.3-.1.4-.2.1-.2s-.6,0-.9.2M44,226.3h.9c.2,0,0-.1-.4-.1s-.7,0-.4.1M58,226.9s.4.4.8.8l.8.7-.7-.8c-.7-.7-.9-.9-.9-.7M61.5,227.6s.4.4.8.8l.8.7-.7-.8c-.7-.7-.9-.9-.9-.7M166.9,232c0,.7,0,1,.1.7v-1.3c0-.4-.1,0-.1.7M132,234.5c0,1.5,0,2,0,1.3v-2.7c0-.7,0,0,0,1.4M142,233.3c0,.8,0,1.1.1.7s0-1.1,0-1.5-.1,0,0,.8M327.8,233c-.5.5-.8.9-.7.9,0,0,.5-.3.9-.9,1-1.2.9-1.2-.2,0M178.2,240.4c0,3.9,0,5.4,0,3.5v-7.1c0-1.9,0-.3,0,3.6M339.1,236.3h.9c.2,0,0-.1-.4-.1s-.7,0-.4.1M51.3,236.5h.9c.2,0,0-.1-.4-.1s-.7,0-.4.1M188.1,240.6c0,2,0,2.8,0,1.8v-3.7c0-1,0-.1,0,1.9M157.2,244.8c0,4,0,5.7,0,3.7v-7.3c0-2,0-.4,0,3.6M62.7,243.3h1.8c.5,0,0,0-.9,0s-1.4,0-.9,0M142,246c0,.8,0,1.1.1.7s0-1.1,0-1.5-.1,0,0,.8M77.2,248.1l-1,1,1-1c1-.9,1.1-1.1,1-1.1s-.5.5-1,1M132.3,249.8c0,1.4,0,2,0,1.3v-2.6c0-.7,0-.1,0,1.3M95.7,258c0,2.5,0,3.5,0,2.3v-4.5c0-1.2,0-.2,0,2.3M268.6,257.9l-.7.8.8-.7c.7-.7.9-.9.7-.9s-.4.4-.8.8M283.5,257.7h1.3c.4,0,0-.1-.7-.1s-1,0-.7.1M324,266.3h.9c.2,0,0-.1-.4-.1s-.7,0-.4.1M119.4,266.6l-2,.2h1.9c1,0,1.9,0,2-.2,0-.1,0-.2,0-.2l-2,.2M113.4,266.8h1.1c.3,0,0-.1-.5-.1s-.8,0-.5.1M282.9,267.5h2c.5,0,0,0-1,0s-1.5,0-.9,0M329.1,271.7c0,.6,0,.9.1.5v-1.1c0-.3-.1,0-.1.5M72.9,271.8q-.6.6,0,1,.4.4,0,0c-.3-.4-.3-.5.2-1,.3-.3.5-.6.4-.6s-.4.3-.7.6M261.2,278.7h2.4c.6,0,0,0-1.3,0s-1.9,0-1.1,0M103.7,280.2h1.2c.3,0,0-.1-.7-.1s-.9,0-.5.1M114,280.4h.9c.2,0,0-.1-.4-.1s-.7,0-.4.1M220.1,282.9c0,.1,0,.4.3.5q.4.3.1,0c-.3-.3-.3-.4.1-.5q.4-.1,0-.1c-.2,0-.5,0-.5.2M162.1,286.2l-.7.8.8-.7c.4-.4.8-.8.8-.8,0-.2-.2,0-.9.7M284.6,287.5l-.8.9.9-.8c.9-.8,1-1,.8-1s-.5.4-.9.9M198.8,293.6h.9c.2,0,0-.1-.4-.1s-.7,0-.4.1M230.1,295.3h1.3c.4,0,0-.1-.7-.1s-1,0-.7.1M239.5,295.9s.4.4.8.8l.8.7-.7-.8c-.7-.7-.9-.9-.9-.7M172,297.3c0,.5,0,.7.1.4v-.9c0-.2-.1,0-.1.4M278.5,298.2h1.5c.4,0,0-.1-.8,0-.8,0-1.1,0-.7.1M180.1,299.4h2.2c.6,0,0,0-1.2,0s-1.7,0-1,0M124.7,301.7c0,.5,0,.7,0,.4v-.9c0-.2,0,0,0,.4M228,306.3h1.5c.4,0,0-.1-.8,0-.8,0-1.1,0-.7.1M223.2,310.5c0,.5,0,.7.1.4v-.9c0-.2-.1,0-.1.4M155.7,314.6h.9c.2,0,0-.1-.4-.1s-.7,0-.4.1M162.9,315.1h1c.3,0,0-.1-.6-.1s-.7,0-.4.1M177.1,315.5c-.3.3-.5.6-.5.7,0,0,.4-.2.7-.6.7-.9.6-.9-.2,0M177.7,318c.3.3.7.7,1,.8.5.3.4.2-.7-.8q-.7-.6-.2,0"/>
  <path id="path4" class="cls-4" d="M161.5,60.7c0,.6,0,.9.1.5v-1.1c0-.3-.1,0-.1.5M199.8,63.8c0,.5,0,.7.1.4v-1c0-.2-.1,0-.1.6M284.2,63.8h2.7c.7,0,0,0-1.4,0s-2,0-1.3,0M105.9,71.2c0,.6,0,.8,0,.5v-1.1c0-.3,0,0,0,.5M279.8,76h.9c.2,0,0,0-.4,0s-.7,0-.4,0M224.2,83.3h1.8c.5,0,0,0-.9,0s-1.4,0-.9,0M134.1,86.3h1c.3,0,0,0-.6,0s-.7,0-.4,0M60.5,120.7h.9c.2,0,0,0-.4,0s-.7,0-.4,0M133.5,120.9h1.3c.4,0,0,0-.7,0s-1,0-.7,0M138.6,120.9h1.3c.4,0,0,0-.7,0s-1,0-.7,0M190.3,120.9h.9c.2,0,0,0-.4,0s-.7,0-.4,0M64.9,135.3h1.8c.5,0,0,0-.9,0s-1.4,0-.9,0M205.1,136.8h1.1c.3,0,0-.1-.5-.1s-.9,0-.5.1M50.3,173.9c0,1.7,0,2.4,0,1.5v-3c0-.8,0-.2,0,1.5M63,182.6c0,2.1,0,3,0,1.9v-3.9c0-1,0-.1,0,2M59.2,195.5h1c.2,0,0-.1-.6-.1s-.7,0-.4.1M91.5,195.8h1.3c.4,0,0-.1-.7-.1s-1,0-.7.1M97.3,225.1h1c.2,0,0-.1-.6-.1s-.7,0-.4.1M328.7,225.5h1c.2,0,0-.1-.6-.1s-.7,0-.4.1M95.9,227.2c0,.5,0,.7,0,.4v-1c0-.2,0,0,0,.6M346.5,226.5h1c.3,0,0-.1-.6-.1s-.7,0-.4.1M86.9,236.2c0,4,0,5.7,0,3.7v-7.3c0-2,0-.4,0,3.6M203,233.2c0,.7,0,1,.1.7v-1.3c0-.4-.1,0-.1.7M132,241c0,.7,0,1,.1.7s0-1,0-1.3-.1,0-.1.7M178.1,250.6c0,.5,0,.7.1.4v-1c0-.2-.1,0-.1.6M188.4,250.7c0,.6,0,.9.1.5v-1.1c0-.3-.1,0-.1.5M195.8,267.5h1.5c.4,0,0-.1-.8,0-.8,0-1.1,0-.7.1M222.3,282.6h1.8c.5,0,0,0-.9,0s-1.4,0-.9,0M120.1,297.7h1.3c.4,0,0-.1-.7-.1s-1,0-.7.1"/>
</svg>